<svg xmlns="http://www.w3.org/2000/svg" viewBox="0 0 512 512">
<rect width="512" height="512" rx="112" fill="#5B2A86"/>
<path fill="#FFFFFF" fill-rule="evenodd" d="M 167.9 208.5 L 170.2 172.3 L 241.8 172.3 L 244.1 208.5 L 281.8 230.2 L 314.3 214.2 L 350.0 276.2 L 319.9 296.3 L 319.9 339.7 L 350.0 359.8 L 314.3 421.8 L 281.8 405.8 L 244.1 427.5 L 241.8 463.7 L 170.2 463.7 L 167.9 427.5 L 130.2 405.8 L 97.7 421.8 L 62.0 359.8 L 92.1 339.7 L 92.1 296.3 L 62.0 276.2 L 97.7 214.2 L 130.2 230.2 Z
 M 206 318 m -66 0 a 66 66 0 1 0 132 0 a 66 66 0 1 0 -132 0 Z"/>
<g stroke="#5B2A86" stroke-width="34" stroke-linejoin="round" fill="#FFFFFF">
<path d="M 250 352 L 366 236 L 366 236 L 296 236 L 296 176 L 456 176 L 456 336 L 396 336 L 396 266 L 292 370 Z"/></g>
<path fill="#FFFFFF" d="M 250 352 L 366 236 L 366 236 L 296 236 L 296 176 L 456 176 L 456 336 L 396 336 L 396 266 L 292 370 Z"/>
</svg>